<svg xmlns="http://www.w3.org/2000/svg" version="1.1" xmlns:xlink="http://www.w3.org/1999/xlink" xmlns:svgjs="http://svgjs.dev/svgjs" width="1440" height="560" preserveAspectRatio="none" viewBox="0 0 1440 560"><g mask="url(&quot;#SvgjsMask1004&quot;)" fill="none"><path d="M28.53 -36.41L93.48 1.09L93.48 76.09L28.53 113.59L-36.42 76.09L-36.42 1.09zM93.48 76.09L158.44 113.59L158.44 188.59L93.48 226.09L28.53 188.59L28.53 113.59zM28.53 188.59L93.48 226.09L93.48 301.09L28.53 338.59L-36.42 301.09L-36.42 226.09zM158.44 188.59L223.39 226.09L223.39 301.09L158.44 338.59L93.48 301.09L93.48 226.09zM223.39 301.09L288.35 338.59L288.35 413.59L223.39 451.09L158.44 413.59L158.44 338.59zM353.3 301.09L418.25 338.59L418.25 413.59L353.3 451.09L288.35 413.59L288.35 338.59zM418.25 -36.41L483.21 1.09L483.21 76.09L418.25 113.59L353.3 76.09L353.3 1.09zM483.21 76.09L548.16 113.59L548.16 188.59L483.21 226.09L418.25 188.59L418.25 113.59zM548.16 -36.41L613.11 1.09L613.11 76.09L548.16 113.59L483.21 76.09L483.21 1.09zM613.11 76.09L678.07 113.59L678.07 188.59L613.11 226.09L548.16 188.59L548.16 113.59zM548.16 188.59L613.11 226.09L613.11 301.09L548.16 338.59L483.21 301.09L483.21 226.09zM613.11 301.09L678.07 338.59L678.07 413.59L613.11 451.09L548.16 413.59L548.16 338.59zM548.16 413.59L613.11 451.09L613.11 526.09L548.16 563.59L483.21 526.09L483.21 451.09zM613.11 526.09L678.07 563.59L678.07 638.59L613.11 676.09L548.16 638.59L548.16 563.59zM678.07 413.59L743.02 451.09L743.02 526.09L678.07 563.59L613.11 526.09L613.11 451.09zM743.02 526.09L807.98 563.59L807.98 638.59L743.02 676.09L678.07 638.59L678.07 563.59zM872.93 76.09L937.88 113.59L937.88 188.59L872.93 226.09L807.97 188.59L807.97 113.59zM1002.84 301.09L1067.79 338.59L1067.79 413.59L1002.84 451.09L937.88 413.59L937.88 338.59zM1002.84 526.09L1067.79 563.59L1067.79 638.59L1002.84 676.09L937.88 638.59L937.88 563.59zM1067.79 -36.41L1132.74 1.09L1132.74 76.09L1067.79 113.59L1002.84 76.09L1002.84 1.09zM1132.74 76.09L1197.7 113.59L1197.7 188.59L1132.74 226.09L1067.79 188.59L1067.79 113.59zM1067.79 188.59L1132.74 226.09L1132.74 301.09L1067.79 338.59L1002.84 301.09L1002.84 226.09zM1132.74 301.09L1197.7 338.59L1197.7 413.59L1132.74 451.09L1067.79 413.59L1067.79 338.59zM1197.7 -36.41L1262.65 1.09L1262.65 76.09L1197.7 113.59L1132.74 76.09L1132.74 1.09zM1262.65 76.09L1327.6 113.59L1327.6 188.59L1262.65 226.09L1197.7 188.59L1197.7 113.59zM1197.7 413.59L1262.65 451.09L1262.65 526.09L1197.7 563.59L1132.74 526.09L1132.74 451.09zM1327.61 -36.41L1392.56 1.09L1392.56 76.09L1327.61 113.59L1262.65 76.09L1262.65 1.09zM1327.61 413.59L1392.56 451.09L1392.56 526.09L1327.61 563.59L1262.65 526.09L1262.65 451.09zM1457.51 -36.41L1522.47 1.09L1522.47 76.09L1457.51 113.59L1392.56 76.09L1392.56 1.09z" stroke="rgba(67, 19, 2, 1)" stroke-width="2"></path><path d="M21.03 -36.41 a7.5 7.5 0 1 0 15 0 a7.5 7.5 0 1 0 -15 0zM85.98 1.09 a7.5 7.5 0 1 0 15 0 a7.5 7.5 0 1 0 -15 0zM85.98 76.09 a7.5 7.5 0 1 0 15 0 a7.5 7.5 0 1 0 -15 0zM21.03 113.59 a7.5 7.5 0 1 0 15 0 a7.5 7.5 0 1 0 -15 0zM-43.92 76.09 a7.5 7.5 0 1 0 15 0 a7.5 7.5 0 1 0 -15 0zM-43.92 1.09 a7.5 7.5 0 1 0 15 0 a7.5 7.5 0 1 0 -15 0zM150.94 113.59 a7.5 7.5 0 1 0 15 0 a7.5 7.5 0 1 0 -15 0zM150.94 188.59 a7.5 7.5 0 1 0 15 0 a7.5 7.5 0 1 0 -15 0zM85.98 226.09 a7.5 7.5 0 1 0 15 0 a7.5 7.5 0 1 0 -15 0zM21.03 188.59 a7.5 7.5 0 1 0 15 0 a7.5 7.5 0 1 0 -15 0zM85.98 301.09 a7.5 7.5 0 1 0 15 0 a7.5 7.5 0 1 0 -15 0zM21.03 338.59 a7.5 7.5 0 1 0 15 0 a7.5 7.5 0 1 0 -15 0zM-43.92 301.09 a7.5 7.5 0 1 0 15 0 a7.5 7.5 0 1 0 -15 0zM-43.92 226.09 a7.5 7.5 0 1 0 15 0 a7.5 7.5 0 1 0 -15 0zM215.89 226.09 a7.5 7.5 0 1 0 15 0 a7.5 7.5 0 1 0 -15 0zM215.89 301.09 a7.5 7.5 0 1 0 15 0 a7.5 7.5 0 1 0 -15 0zM150.94 338.59 a7.5 7.5 0 1 0 15 0 a7.5 7.5 0 1 0 -15 0zM280.85 338.59 a7.5 7.5 0 1 0 15 0 a7.5 7.5 0 1 0 -15 0zM280.85 413.59 a7.5 7.5 0 1 0 15 0 a7.5 7.5 0 1 0 -15 0zM215.89 451.09 a7.5 7.5 0 1 0 15 0 a7.5 7.5 0 1 0 -15 0zM150.94 413.59 a7.5 7.5 0 1 0 15 0 a7.5 7.5 0 1 0 -15 0zM345.8 301.09 a7.5 7.5 0 1 0 15 0 a7.5 7.5 0 1 0 -15 0zM410.75 338.59 a7.5 7.5 0 1 0 15 0 a7.5 7.5 0 1 0 -15 0zM410.75 413.59 a7.5 7.5 0 1 0 15 0 a7.5 7.5 0 1 0 -15 0zM345.8 451.09 a7.5 7.5 0 1 0 15 0 a7.5 7.5 0 1 0 -15 0zM410.75 -36.41 a7.5 7.5 0 1 0 15 0 a7.5 7.5 0 1 0 -15 0zM475.71 1.09 a7.5 7.5 0 1 0 15 0 a7.5 7.5 0 1 0 -15 0zM475.71 76.09 a7.5 7.5 0 1 0 15 0 a7.5 7.5 0 1 0 -15 0zM410.75 113.59 a7.5 7.5 0 1 0 15 0 a7.5 7.5 0 1 0 -15 0zM345.8 76.09 a7.5 7.5 0 1 0 15 0 a7.5 7.5 0 1 0 -15 0zM345.8 1.09 a7.5 7.5 0 1 0 15 0 a7.5 7.5 0 1 0 -15 0zM540.66 113.59 a7.5 7.5 0 1 0 15 0 a7.5 7.5 0 1 0 -15 0zM540.66 188.59 a7.5 7.5 0 1 0 15 0 a7.5 7.5 0 1 0 -15 0zM475.71 226.09 a7.5 7.5 0 1 0 15 0 a7.5 7.5 0 1 0 -15 0zM410.75 188.59 a7.5 7.5 0 1 0 15 0 a7.5 7.5 0 1 0 -15 0zM540.66 -36.41 a7.5 7.5 0 1 0 15 0 a7.5 7.5 0 1 0 -15 0zM605.61 1.09 a7.5 7.5 0 1 0 15 0 a7.5 7.5 0 1 0 -15 0zM605.61 76.09 a7.5 7.5 0 1 0 15 0 a7.5 7.5 0 1 0 -15 0zM670.57 113.59 a7.5 7.5 0 1 0 15 0 a7.5 7.5 0 1 0 -15 0zM670.57 188.59 a7.5 7.5 0 1 0 15 0 a7.5 7.5 0 1 0 -15 0zM605.61 226.09 a7.5 7.5 0 1 0 15 0 a7.5 7.5 0 1 0 -15 0zM605.61 301.09 a7.5 7.5 0 1 0 15 0 a7.5 7.5 0 1 0 -15 0zM540.66 338.59 a7.5 7.5 0 1 0 15 0 a7.5 7.5 0 1 0 -15 0zM475.71 301.09 a7.5 7.5 0 1 0 15 0 a7.5 7.5 0 1 0 -15 0zM670.57 338.59 a7.5 7.5 0 1 0 15 0 a7.5 7.5 0 1 0 -15 0zM670.57 413.59 a7.5 7.5 0 1 0 15 0 a7.5 7.5 0 1 0 -15 0zM605.61 451.09 a7.5 7.5 0 1 0 15 0 a7.5 7.5 0 1 0 -15 0zM540.66 413.59 a7.5 7.5 0 1 0 15 0 a7.5 7.5 0 1 0 -15 0zM605.61 526.09 a7.5 7.5 0 1 0 15 0 a7.5 7.5 0 1 0 -15 0zM540.66 563.59 a7.5 7.5 0 1 0 15 0 a7.5 7.5 0 1 0 -15 0zM475.71 526.09 a7.5 7.5 0 1 0 15 0 a7.5 7.5 0 1 0 -15 0zM475.71 451.09 a7.5 7.5 0 1 0 15 0 a7.5 7.5 0 1 0 -15 0zM670.57 563.59 a7.5 7.5 0 1 0 15 0 a7.5 7.5 0 1 0 -15 0zM670.57 638.59 a7.5 7.5 0 1 0 15 0 a7.5 7.5 0 1 0 -15 0zM605.61 676.09 a7.5 7.5 0 1 0 15 0 a7.5 7.5 0 1 0 -15 0zM540.66 638.59 a7.5 7.5 0 1 0 15 0 a7.5 7.5 0 1 0 -15 0zM735.52 451.09 a7.5 7.5 0 1 0 15 0 a7.5 7.5 0 1 0 -15 0zM735.52 526.09 a7.5 7.5 0 1 0 15 0 a7.5 7.5 0 1 0 -15 0zM800.48 563.59 a7.5 7.5 0 1 0 15 0 a7.5 7.5 0 1 0 -15 0zM800.48 638.59 a7.5 7.5 0 1 0 15 0 a7.5 7.5 0 1 0 -15 0zM735.52 676.09 a7.5 7.5 0 1 0 15 0 a7.5 7.5 0 1 0 -15 0zM865.43 76.09 a7.5 7.5 0 1 0 15 0 a7.5 7.5 0 1 0 -15 0zM930.38 113.59 a7.5 7.5 0 1 0 15 0 a7.5 7.5 0 1 0 -15 0zM930.38 188.59 a7.5 7.5 0 1 0 15 0 a7.5 7.5 0 1 0 -15 0zM865.43 226.09 a7.5 7.5 0 1 0 15 0 a7.5 7.5 0 1 0 -15 0zM800.47 188.59 a7.5 7.5 0 1 0 15 0 a7.5 7.5 0 1 0 -15 0zM800.47 113.59 a7.5 7.5 0 1 0 15 0 a7.5 7.5 0 1 0 -15 0zM995.34 301.09 a7.5 7.5 0 1 0 15 0 a7.5 7.5 0 1 0 -15 0zM1060.29 338.59 a7.5 7.5 0 1 0 15 0 a7.5 7.5 0 1 0 -15 0zM1060.29 413.59 a7.5 7.5 0 1 0 15 0 a7.5 7.5 0 1 0 -15 0zM995.34 451.09 a7.5 7.5 0 1 0 15 0 a7.5 7.5 0 1 0 -15 0zM930.38 413.59 a7.5 7.5 0 1 0 15 0 a7.5 7.5 0 1 0 -15 0zM930.38 338.59 a7.5 7.5 0 1 0 15 0 a7.5 7.5 0 1 0 -15 0zM995.34 526.09 a7.5 7.5 0 1 0 15 0 a7.5 7.5 0 1 0 -15 0zM1060.29 563.59 a7.5 7.5 0 1 0 15 0 a7.5 7.5 0 1 0 -15 0zM1060.29 638.59 a7.5 7.5 0 1 0 15 0 a7.5 7.5 0 1 0 -15 0zM995.34 676.09 a7.5 7.5 0 1 0 15 0 a7.5 7.5 0 1 0 -15 0zM930.38 638.59 a7.5 7.5 0 1 0 15 0 a7.5 7.5 0 1 0 -15 0zM930.38 563.59 a7.5 7.5 0 1 0 15 0 a7.5 7.5 0 1 0 -15 0zM1060.29 -36.41 a7.5 7.5 0 1 0 15 0 a7.5 7.5 0 1 0 -15 0zM1125.24 1.09 a7.5 7.5 0 1 0 15 0 a7.5 7.5 0 1 0 -15 0zM1125.24 76.09 a7.5 7.5 0 1 0 15 0 a7.5 7.5 0 1 0 -15 0zM1060.29 113.59 a7.5 7.5 0 1 0 15 0 a7.5 7.5 0 1 0 -15 0zM995.34 76.09 a7.5 7.5 0 1 0 15 0 a7.5 7.5 0 1 0 -15 0zM995.34 1.09 a7.5 7.5 0 1 0 15 0 a7.5 7.5 0 1 0 -15 0zM1190.2 113.59 a7.5 7.5 0 1 0 15 0 a7.5 7.5 0 1 0 -15 0zM1190.2 188.59 a7.5 7.5 0 1 0 15 0 a7.5 7.5 0 1 0 -15 0zM1125.24 226.09 a7.5 7.5 0 1 0 15 0 a7.5 7.5 0 1 0 -15 0zM1060.29 188.59 a7.5 7.5 0 1 0 15 0 a7.5 7.5 0 1 0 -15 0zM1125.24 301.09 a7.5 7.5 0 1 0 15 0 a7.5 7.5 0 1 0 -15 0zM995.34 226.09 a7.5 7.5 0 1 0 15 0 a7.5 7.5 0 1 0 -15 0zM1190.2 338.59 a7.5 7.5 0 1 0 15 0 a7.5 7.5 0 1 0 -15 0zM1190.2 413.59 a7.5 7.5 0 1 0 15 0 a7.5 7.5 0 1 0 -15 0zM1125.24 451.09 a7.5 7.5 0 1 0 15 0 a7.5 7.5 0 1 0 -15 0zM1190.2 -36.41 a7.5 7.5 0 1 0 15 0 a7.5 7.5 0 1 0 -15 0zM1255.15 1.09 a7.5 7.5 0 1 0 15 0 a7.5 7.5 0 1 0 -15 0zM1255.15 76.09 a7.5 7.5 0 1 0 15 0 a7.5 7.5 0 1 0 -15 0zM1320.1 113.59 a7.5 7.5 0 1 0 15 0 a7.5 7.5 0 1 0 -15 0zM1320.1 188.59 a7.5 7.5 0 1 0 15 0 a7.5 7.5 0 1 0 -15 0zM1255.15 226.09 a7.5 7.5 0 1 0 15 0 a7.5 7.5 0 1 0 -15 0zM1255.15 451.09 a7.5 7.5 0 1 0 15 0 a7.5 7.5 0 1 0 -15 0zM1255.15 526.09 a7.5 7.5 0 1 0 15 0 a7.5 7.5 0 1 0 -15 0zM1190.2 563.59 a7.5 7.5 0 1 0 15 0 a7.5 7.5 0 1 0 -15 0zM1125.24 526.09 a7.5 7.5 0 1 0 15 0 a7.5 7.5 0 1 0 -15 0zM1320.11 -36.41 a7.5 7.5 0 1 0 15 0 a7.5 7.5 0 1 0 -15 0zM1385.06 1.09 a7.5 7.5 0 1 0 15 0 a7.5 7.5 0 1 0 -15 0zM1385.06 76.09 a7.5 7.5 0 1 0 15 0 a7.5 7.5 0 1 0 -15 0zM1320.11 113.59 a7.5 7.5 0 1 0 15 0 a7.5 7.5 0 1 0 -15 0zM1320.11 413.59 a7.5 7.5 0 1 0 15 0 a7.5 7.5 0 1 0 -15 0zM1385.06 451.09 a7.5 7.5 0 1 0 15 0 a7.5 7.5 0 1 0 -15 0zM1385.06 526.09 a7.5 7.5 0 1 0 15 0 a7.5 7.5 0 1 0 -15 0zM1320.11 563.59 a7.5 7.5 0 1 0 15 0 a7.5 7.5 0 1 0 -15 0zM1450.01 -36.41 a7.5 7.5 0 1 0 15 0 a7.5 7.5 0 1 0 -15 0zM1514.97 1.09 a7.5 7.5 0 1 0 15 0 a7.5 7.5 0 1 0 -15 0zM1514.97 76.09 a7.5 7.5 0 1 0 15 0 a7.5 7.5 0 1 0 -15 0zM1450.01 113.59 a7.5 7.5 0 1 0 15 0 a7.5 7.5 0 1 0 -15 0z" fill="rgba(67, 19, 2, 1)"></path><path d="M52.15 489.23L95.45 514.23L95.45 564.23L52.15 589.23L8.85 564.23L8.85 514.23zM311.97 39.23L355.27 64.23L355.27 114.23L311.97 139.23L268.67 114.23L268.67 64.23zM268.67 264.23L311.97 289.23L311.97 339.23L268.67 364.23L225.36 339.23L225.36 289.23zM441.88 114.23L485.18 139.23L485.18 189.23L441.88 214.23L398.57 189.23L398.57 139.23zM528.48 -35.77L571.78 -10.77L571.78 39.23L528.48 64.23L485.18 39.23L485.18 -10.77zM615.09 264.23L658.39 289.23L658.39 339.23L615.09 364.23L571.78 339.23L571.78 289.23zM701.69 -35.77L744.99 -10.77L744.99 39.23L701.69 64.23L658.39 39.23L658.39 -10.77zM701.69 414.23L744.99 439.23L744.99 489.23L701.69 514.23L658.39 489.23L658.39 439.23zM831.6 339.23L874.9 364.23L874.9 414.23L831.6 439.23L788.3 414.23L788.3 364.23zM874.9 -35.77L918.2 -10.77L918.2 39.23L874.9 64.23L831.6 39.23L831.6 -10.77zM961.51 264.23L1004.81 289.23L1004.81 339.23L961.51 364.23L918.2 339.23L918.2 289.23zM1048.11 -35.77L1091.41 -10.77L1091.41 39.23L1048.11 64.23L1004.81 39.23L1004.81 -10.77zM1091.41 39.23L1134.71 64.23L1134.71 114.23L1091.41 139.23L1048.11 114.23L1048.11 64.23zM1048.11 264.23L1091.41 289.23L1091.41 339.23L1048.11 364.23L1004.81 339.23L1004.81 289.23zM1134.71 414.23L1178.02 439.23L1178.02 489.23L1134.71 514.23L1091.41 489.23L1091.41 439.23zM1221.32 -35.77L1264.62 -10.77L1264.62 39.23L1221.32 64.23L1178.02 39.23L1178.02 -10.77zM1264.62 189.23L1307.92 214.23L1307.92 264.23L1264.62 289.23L1221.32 264.23L1221.32 214.23z" stroke="rgba(153, 47, 9, 1)" stroke-width="2"></path></g><defs><mask id="SvgjsMask1004"><rect width="1440" height="560" fill="#ffffff"></rect></mask></defs></svg>